<svg width="16" height="16" viewBox="0 0 16 16" fill="none" xmlns="http://www.w3.org/2000/svg">
<path d="M14.0002 7.33333H6.2735L7.80683 5.80667C7.86899 5.74451 7.9183 5.67071 7.95194 5.5895C7.98558 5.50829 8.00289 5.42124 8.00289 5.33333C8.00289 5.24543 7.98558 5.15838 7.95194 5.07717C7.9183 4.99595 7.86899 4.92216 7.80683 4.86C7.74467 4.79784 7.67088 4.74853 7.58966 4.71489C7.50845 4.68125 7.4214 4.66394 7.3335 4.66394C7.24559 4.66394 7.15854 4.68125 7.07733 4.71489C6.99612 4.74853 6.92232 4.79784 6.86016 4.86L4.1935 7.52667C4.1328 7.59007 4.08523 7.66483 4.0535 7.74667C3.98682 7.90897 3.98682 8.09103 4.0535 8.25333C4.08523 8.33517 4.1328 8.40993 4.1935 8.47333L6.86016 11.14C6.92214 11.2025 6.99587 11.2521 7.07711 11.2859C7.15835 11.3198 7.24549 11.3372 7.3335 11.3372C7.4215 11.3372 7.50864 11.3198 7.58988 11.2859C7.67112 11.2521 7.74485 11.2025 7.80683 11.14C7.86932 11.078 7.91891 11.0043 7.95276 10.9231C7.9866 10.8418 8.00403 10.7547 8.00403 10.6667C8.00403 10.5787 7.9866 10.4915 7.95276 10.4103C7.91891 10.329 7.86932 10.2553 7.80683 10.1933L6.2735 8.66667H14.0002C14.177 8.66667 14.3465 8.59643 14.4716 8.4714C14.5966 8.34638 14.6668 8.17681 14.6668 8C14.6668 7.82319 14.5966 7.65362 14.4716 7.5286C14.3465 7.40357 14.177 7.33333 14.0002 7.33333ZM2.00016 2C1.82335 2 1.65378 2.07024 1.52876 2.19526C1.40373 2.32029 1.3335 2.48986 1.3335 2.66667V13.3333C1.3335 13.5101 1.40373 13.6797 1.52876 13.8047C1.65378 13.9298 1.82335 14 2.00016 14C2.17697 14 2.34654 13.9298 2.47157 13.8047C2.59659 13.6797 2.66683 13.5101 2.66683 13.3333V2.66667C2.66683 2.48986 2.59659 2.32029 2.47157 2.19526C2.34654 2.07024 2.17697 2 2.00016 2Z" fill="#566BA0"/>
</svg>
