<svg width="16" height="16" viewBox="0 0 16 16" fill="none" xmlns="http://www.w3.org/2000/svg">
<path fill-rule="evenodd" clip-rule="evenodd" d="M8 0C4.68648 0 2 2.68648 2 6C2 8.35707 3.35957 10.3916 5.33333 11.3724V12V13.3333C5.33333 14.4379 6.22876 15.3333 7.33333 15.3333H8.66667C9.77124 15.3333 10.6667 14.4379 10.6667 13.3333V12V11.3724C12.6404 10.3916 14 8.35707 14 6C14 2.68648 11.3135 0 8 0ZM9.33333 11.3333V10.942C9.33333 10.6704 9.49805 10.426 9.74976 10.3241C11.4613 9.63092 12.6667 7.95655 12.6667 6C12.6667 3.42286 10.5771 1.33333 8 1.33333C5.42286 1.33333 3.33333 3.42286 3.33333 6C3.33333 7.95655 4.53865 9.63092 6.25025 10.3241C6.50195 10.426 6.66667 10.6704 6.66667 10.942V11.3328C6.66667 11.333 6.66667 11.3331 6.66667 11.3333H9.33333ZM6.66667 12.6667V13.3333C6.66667 13.7015 6.96514 14 7.33333 14H8.66667C9.03486 14 9.33333 13.7015 9.33333 13.3333V12.6667H6.66667Z" fill="#566BA0"/>
<path fill-rule="evenodd" clip-rule="evenodd" d="M7.99984 4.00008C6.89536 4.00008 5.99984 4.8956 5.99984 6.00008C5.99984 6.36827 5.70136 6.66675 5.33317 6.66675C4.96498 6.66675 4.6665 6.36827 4.6665 6.00008C4.6665 4.15922 6.15898 2.66675 7.99984 2.66675C8.36803 2.66675 8.6665 2.96522 8.6665 3.33341C8.6665 3.7016 8.36803 4.00008 7.99984 4.00008Z" fill="#566BA0"/>
</svg>
