<svg width="16" height="16" viewBox="0 0 16 16" fill="none" xmlns="http://www.w3.org/2000/svg">
<path fill-rule="evenodd" clip-rule="evenodd" d="M1.3335 1.99992C1.3335 1.63173 1.63197 1.33325 2.00016 1.33325H6.66683C7.03502 1.33325 7.3335 1.63173 7.3335 1.99992V6.66659C7.3335 7.03478 7.03502 7.33325 6.66683 7.33325H2.00016C1.63197 7.33325 1.3335 7.03478 1.3335 6.66659V1.99992ZM2.66683 2.66659V5.99992H6.00016V2.66659H2.66683Z" fill="#566BA0"/>
<path fill-rule="evenodd" clip-rule="evenodd" d="M8.6665 1.99992C8.6665 1.63173 8.96498 1.33325 9.33317 1.33325H13.9998C14.368 1.33325 14.6665 1.63173 14.6665 1.99992V6.66659C14.6665 7.03478 14.368 7.33325 13.9998 7.33325H9.33317C8.96498 7.33325 8.6665 7.03478 8.6665 6.66659V1.99992ZM9.99984 2.66659V5.99992H13.3332V2.66659H9.99984Z" fill="#566BA0"/>
<path fill-rule="evenodd" clip-rule="evenodd" d="M8.6665 9.33341C8.6665 8.96522 8.96498 8.66675 9.33317 8.66675H13.9998C14.368 8.66675 14.6665 8.96522 14.6665 9.33341V14.0001C14.6665 14.3683 14.368 14.6667 13.9998 14.6667H9.33317C8.96498 14.6667 8.6665 14.3683 8.6665 14.0001V9.33341ZM9.99984 10.0001V13.3334H13.3332V10.0001H9.99984Z" fill="#566BA0"/>
<path fill-rule="evenodd" clip-rule="evenodd" d="M1.3335 9.33341C1.3335 8.96522 1.63197 8.66675 2.00016 8.66675H6.66683C7.03502 8.66675 7.3335 8.96522 7.3335 9.33341V14.0001C7.3335 14.3683 7.03502 14.6667 6.66683 14.6667H2.00016C1.63197 14.6667 1.3335 14.3683 1.3335 14.0001V9.33341ZM2.66683 10.0001V13.3334H6.00016V10.0001H2.66683Z" fill="#566BA0"/>
</svg>
