<svg width="16" height="16" viewBox="0 0 16 16" fill="none" xmlns="http://www.w3.org/2000/svg">
<path fill-rule="evenodd" clip-rule="evenodd" d="M7.99984 2.00008C4.68613 2.00008 1.99984 4.68637 1.99984 8.00008C1.99984 11.3138 4.68613 14.0001 7.99984 14.0001C11.3135 14.0001 13.9998 11.3138 13.9998 8.00008C13.9998 4.68637 11.3135 2.00008 7.99984 2.00008ZM0.666504 8.00008C0.666504 3.94999 3.94975 0.666748 7.99984 0.666748C12.0499 0.666748 15.3332 3.94999 15.3332 8.00008C15.3332 12.0502 12.0499 15.3334 7.99984 15.3334C3.94975 15.3334 0.666504 12.0502 0.666504 8.00008Z" fill="#566BA0"/>
<path fill-rule="evenodd" clip-rule="evenodd" d="M7.99984 3.33341C8.36803 3.33341 8.6665 3.63189 8.6665 4.00008V7.58806L10.9646 8.73713C11.294 8.90179 11.4274 9.30224 11.2628 9.63156C11.0981 9.96088 10.6977 10.0944 10.3684 9.9297L7.70169 8.59637C7.47584 8.48344 7.33317 8.2526 7.33317 8.00008V4.00008C7.33317 3.63189 7.63165 3.33341 7.99984 3.33341Z" fill="#566BA0"/>
</svg>
