<svg width="16" height="16" viewBox="0 0 16 16" fill="none" xmlns="http://www.w3.org/2000/svg">
<path fill-rule="evenodd" clip-rule="evenodd" d="M7.76592 0.709195C7.91684 0.652599 8.08316 0.652599 8.23408 0.709195L13.5674 2.7092C13.8276 2.80677 14 3.05552 14 3.33341V8.00008C14 10.2977 12.4788 12.1336 11.1057 13.3351C10.4051 13.9481 9.70764 14.4273 9.18667 14.7529C8.92549 14.9162 8.70688 15.0419 8.55204 15.1276C8.47458 15.1705 8.41295 15.2034 8.36979 15.2261C8.3482 15.2374 8.33122 15.2462 8.31917 15.2524L8.30484 15.2597L8.30052 15.2618L8.29909 15.2626C8.29887 15.2627 8.29814 15.263 8 14.6667C7.70186 15.263 7.70166 15.2629 7.70145 15.2628L7.69948 15.2618L7.69516 15.2597L7.68083 15.2524C7.66878 15.2462 7.6518 15.2374 7.63021 15.2261C7.58705 15.2034 7.52542 15.1705 7.44796 15.1276C7.29312 15.0419 7.07452 14.9162 6.81333 14.7529C6.29236 14.4273 5.59492 13.9481 4.89433 13.3351C3.52116 12.1336 2 10.2977 2 8.00008V3.33341C2 3.05552 2.17238 2.80677 2.43258 2.7092L7.76592 0.709195ZM8 14.6667L7.70145 15.2628C7.88913 15.3567 8.11046 15.3569 8.29814 15.263L8 14.6667ZM8 13.9086C8.12776 13.8362 8.29114 13.7403 8.48 13.6222C8.95903 13.3229 9.59492 12.8853 10.2277 12.3317C11.5212 11.1999 12.6667 9.70246 12.6667 8.00008V3.79542L8 2.04542L3.33333 3.79542V8.00008C3.33333 9.70246 4.47884 11.1999 5.77234 12.3317C6.40508 12.8853 7.04097 13.3229 7.52 13.6222C7.70886 13.7403 7.87224 13.8362 8 13.9086Z" fill="#566BA0"/>
</svg>
