<svg width="16" height="16" viewBox="0 0 16 16" fill="none" xmlns="http://www.w3.org/2000/svg">
<path d="M11.3335 4.66659H4.66683C4.49002 4.66659 4.32045 4.73682 4.19543 4.86185C4.0704 4.98687 4.00016 5.15644 4.00016 5.33325C4.00016 5.51006 4.0704 5.67963 4.19543 5.80466C4.32045 5.92968 4.49002 5.99992 4.66683 5.99992H11.3335C11.5103 5.99992 11.6799 5.92968 11.8049 5.80466C11.9299 5.67963 12.0002 5.51006 12.0002 5.33325C12.0002 5.15644 11.9299 4.98687 11.8049 4.86185C11.6799 4.73682 11.5103 4.66659 11.3335 4.66659ZM11.3335 7.33325H4.66683C4.49002 7.33325 4.32045 7.40349 4.19543 7.52851C4.0704 7.65354 4.00016 7.82311 4.00016 7.99992C4.00016 8.17673 4.0704 8.3463 4.19543 8.47132C4.32045 8.59635 4.49002 8.66659 4.66683 8.66659H11.3335C11.5103 8.66659 11.6799 8.59635 11.8049 8.47132C11.9299 8.3463 12.0002 8.17673 12.0002 7.99992C12.0002 7.82311 11.9299 7.65354 11.8049 7.52851C11.6799 7.40349 11.5103 7.33325 11.3335 7.33325ZM12.6668 1.33325H3.3335C2.80306 1.33325 2.29436 1.54397 1.91928 1.91904C1.54421 2.29411 1.3335 2.80282 1.3335 3.33325V9.99992C1.3335 10.5304 1.54421 11.0391 1.91928 11.4141C2.29436 11.7892 2.80306 11.9999 3.3335 11.9999H11.0602L13.5268 14.4733C13.5891 14.535 13.663 14.5839 13.7442 14.6171C13.8254 14.6503 13.9124 14.6671 14.0002 14.6666C14.0876 14.6688 14.1744 14.6506 14.2535 14.6133C14.3752 14.5632 14.4795 14.4783 14.553 14.3692C14.6266 14.26 14.6662 14.1315 14.6668 13.9999V3.33325C14.6668 2.80282 14.4561 2.29411 14.081 1.91904C13.706 1.54397 13.1973 1.33325 12.6668 1.33325ZM13.3335 12.3933L11.8068 10.8599C11.7445 10.7981 11.6707 10.7492 11.5894 10.7161C11.5082 10.6829 11.4212 10.6661 11.3335 10.6666H3.3335C3.15669 10.6666 2.98712 10.5963 2.86209 10.4713C2.73707 10.3463 2.66683 10.1767 2.66683 9.99992V3.33325C2.66683 3.15644 2.73707 2.98687 2.86209 2.86185C2.98712 2.73682 3.15669 2.66659 3.3335 2.66659H12.6668C12.8436 2.66659 13.0132 2.73682 13.1382 2.86185C13.2633 2.98687 13.3335 3.15644 13.3335 3.33325V12.3933Z" fill="#566BA0"/>
</svg>
