<svg width="18" height="17" viewBox="0 0 18 17" fill="none" xmlns="http://www.w3.org/2000/svg">
<path opacity="0.3" fill-rule="evenodd" clip-rule="evenodd" d="M13.8038 11.73L17.6288 15.555C17.9688 15.895 17.9688 16.405 17.6288 16.745C17.4588 16.915 17.2038 17 17.0338 17C16.8638 17 16.6088 16.915 16.4388 16.745L12.6138 12.92C11.3388 13.855 9.80879 14.45 8.10879 14.45C4.11379 14.45 0.883789 11.22 0.883789 7.225C0.883789 3.23 4.11379 0 8.10879 0C12.1038 0 15.3338 3.23 15.3338 7.225C15.3338 8.925 14.7388 10.54 13.8038 11.73ZM8.1085 1.70122C5.0485 1.70122 2.5835 4.16622 2.5835 7.22622C2.5835 10.2862 5.0485 12.7512 8.1085 12.7512C9.6385 12.7512 10.9985 12.1562 12.0185 11.1362C13.0385 10.1162 13.6335 8.75622 13.6335 7.22622C13.6335 4.16622 11.1685 1.70122 8.1085 1.70122Z" fill="black"/>
</svg>
